<svg width="287" height="302" viewBox="0 0 287 302" fill="none" xmlns="http://www.w3.org/2000/svg">
<path d="M1 111.423L49.3574 145.625V72.3355L144.014 113.378L237.643 72.3355V145.625L286 111.423V1L144.014 64.5179L1 1V111.423Z" fill="#0059F7"/>
<path d="M286 199.371V141.717L142.471 244.322L1 142.694V199.371L141.957 301L286 199.371Z" fill="#0059F7"/>
<path d="M1 111.423L49.3574 145.625V72.3355L144.014 113.378L237.643 72.3355V145.625L286 111.423V1L144.014 64.5179L1 1V111.423Z" stroke="#0059F7"/>
<path d="M286 199.371V141.717L142.471 244.322L1 142.694V199.371L141.957 301L286 199.371Z" stroke="#0059F7"/>
</svg>
