  <svg width="411" height="290" viewBox="0 0 411 290" fill="none" xmlns="http://www.w3.org/2000/svg">
<path d="M10.2027 223.026H82.077C85.6368 223.026 88.9283 221.134 90.7192 218.057L116.415 173.917C120.296 167.249 129.947 167.302 133.754 174.012L196.613 284.773C200.433 291.504 210.123 291.531 213.98 284.822L369.098 14.9838C372.93 8.31712 368.118 0 360.428 0H289.104C285.556 0 282.273 1.88055 280.478 4.94162L213.963 118.372C210.081 124.993 200.496 124.953 196.669 118.301L131.491 5.01315C129.707 1.91173 126.401 0 122.823 0H50.2443C42.5184 0 37.7107 8.38775 41.6156 15.0542L74.0981 70.5096C75.9044 73.5934 75.9277 77.4068 74.1591 80.5125L1.51298 208.078C-2.28347 214.744 2.53096 223.026 10.2027 223.026Z" fill="#0059F7"/>
<path d="M400.886 223.026H333.9C326.248 223.026 321.432 214.783 325.188 208.117L358.681 148.683C362.506 141.896 372.28 141.896 376.105 148.683L409.598 208.117C413.355 214.783 408.538 223.026 400.886 223.026Z" fill="#0059F7"/>
</svg>
