<svg width="305" height="248" viewBox="0 0 305 248" fill="none" xmlns="http://www.w3.org/2000/svg">
<path d="M284.16 247.423H13.0713C9.6058 247.42 6.28332 246.231 3.83281 244.118C1.3823 242.005 0.00389381 239.14 0 236.152V135.536C0.00394074 132.547 1.38235 129.682 3.83285 127.569C6.28335 125.456 9.60581 124.268 13.0713 124.264H284.16C287.625 124.268 290.948 125.456 293.398 127.569C295.849 129.682 297.227 132.547 297.231 135.536V236.152C297.227 239.14 295.849 242.005 293.398 244.118C290.948 246.231 287.625 247.42 284.16 247.423Z" fill="white"/>
<path d="M284.16 247.423H13.0713C9.6058 247.42 6.28332 246.231 3.83281 244.118C1.3823 242.005 0.00389381 239.14 0 236.152V135.536C0.00394204 132.547 1.38235 129.682 3.83285 127.569C6.28335 125.456 9.60581 124.268 13.0713 124.264C93.9417 116.657 186.024 118.035 284.16 124.264C287.625 124.268 290.948 125.456 293.398 127.569C295.849 129.682 297.227 132.547 297.231 135.536C307.39 164.709 307.787 206.176 297.231 236.152C297.227 239.14 295.849 242.005 293.398 244.118C290.948 246.231 287.625 247.42 284.16 247.423ZM13.0713 125.244C11.5041 125.244 9.95212 125.51 8.50413 126.028C7.05614 126.545 5.74047 127.303 4.63223 128.259C3.52399 129.214 2.64488 130.349 2.0451 131.597C1.44533 132.846 1.13663 134.184 1.13663 135.536V236.152C1.13663 238.881 2.39404 241.499 4.63223 243.429C6.87042 245.359 9.90606 246.443 13.0713 246.443H284.16C287.325 246.443 290.361 245.359 292.599 243.429C294.837 241.499 296.094 238.881 296.094 236.152V190.791C296.094 173.407 288.086 156.735 273.83 144.443C259.575 132.15 240.24 125.244 220.08 125.244L13.0713 125.244Z" fill="#E6E6E6"/>
<path d="M199.501 139.175H165.434C165.247 139.176 165.062 139.144 164.889 139.083C164.716 139.022 164.559 138.932 164.426 138.818C164.294 138.704 164.189 138.569 164.117 138.421C164.046 138.272 164.009 138.112 164.009 137.951C164.009 137.79 164.046 137.63 164.117 137.482C164.189 137.333 164.294 137.198 164.426 137.084C164.559 136.97 164.716 136.88 164.889 136.819C165.062 136.758 165.247 136.726 165.434 136.727H199.501C199.688 136.726 199.873 136.758 200.046 136.819C200.218 136.88 200.376 136.97 200.508 137.084C200.64 137.198 200.745 137.333 200.817 137.482C200.889 137.63 200.926 137.79 200.926 137.951C200.926 138.112 200.889 138.272 200.817 138.421C200.745 138.569 200.64 138.704 200.508 138.818C200.376 138.932 200.218 139.022 200.046 139.083C199.873 139.144 199.688 139.176 199.501 139.175Z" fill="#0059F7"/>
<path d="M169.89 177.049H135.823C135.636 177.05 135.451 177.018 135.278 176.957C135.105 176.896 134.948 176.806 134.816 176.692C134.683 176.578 134.578 176.443 134.507 176.295C134.435 176.146 134.398 175.986 134.398 175.825C134.398 175.664 134.435 175.504 134.507 175.356C134.578 175.207 134.683 175.072 134.816 174.958C134.948 174.844 135.105 174.754 135.278 174.693C135.451 174.632 135.636 174.6 135.823 174.601H169.89C170.077 174.6 170.262 174.632 170.435 174.693C170.608 174.754 170.765 174.844 170.897 174.958C171.029 175.072 171.134 175.207 171.206 175.356C171.278 175.504 171.315 175.664 171.315 175.825C171.315 175.986 171.278 176.146 171.206 176.295C171.134 176.443 171.029 176.578 170.897 176.692C170.765 176.806 170.608 176.896 170.435 176.957C170.262 177.018 170.077 177.05 169.89 177.049Z" fill="#0059F7"/>
<path d="M196.795 174.527C195.369 172.78 194.184 170.894 193.266 168.908C193.238 168.849 193.191 168.797 193.129 168.761C193.067 168.725 192.994 168.706 192.919 168.706C192.844 168.706 192.771 168.725 192.709 168.761C192.647 168.797 192.599 168.849 192.572 168.909C191.654 170.894 190.47 172.78 189.044 174.527C188.996 174.583 188.971 174.651 188.971 174.721C188.972 174.79 188.998 174.858 189.047 174.913C189.096 174.969 189.164 175.01 189.241 175.029C189.318 175.049 189.401 175.046 189.477 175.022L192.425 174.103V189.841H193.412V174.103L196.362 175.023C196.438 175.047 196.52 175.049 196.598 175.029C196.675 175.01 196.743 174.969 196.792 174.914C196.84 174.858 196.867 174.79 196.867 174.721C196.868 174.651 196.843 174.583 196.795 174.527Z" fill="#3F3D56"/>
<path d="M165.63 146.78C165.602 146.72 165.554 146.669 165.492 146.633C165.431 146.596 165.357 146.577 165.283 146.577C165.208 146.577 165.135 146.597 165.073 146.633C165.011 146.669 164.963 146.72 164.935 146.78C164.018 148.765 162.834 150.651 161.407 152.399C161.36 152.455 161.334 152.523 161.335 152.592C161.336 152.662 161.362 152.73 161.411 152.785C161.459 152.841 161.527 152.881 161.605 152.901C161.682 152.92 161.765 152.918 161.841 152.894L164.789 151.974V167.713H165.776V151.974L168.726 152.894C168.801 152.918 168.884 152.921 168.961 152.901C169.039 152.881 169.107 152.841 169.155 152.785C169.204 152.73 169.231 152.662 169.231 152.593C169.232 152.523 169.207 152.455 169.159 152.399C167.732 150.651 166.548 148.765 165.63 146.78Z" fill="#3F3D56"/>
<path d="M137.993 182.101C137.965 182.041 137.917 181.99 137.855 181.953C137.793 181.917 137.72 181.898 137.645 181.898C137.571 181.898 137.498 181.917 137.436 181.954C137.374 181.99 137.326 182.041 137.298 182.101C136.381 184.086 135.197 185.972 133.77 187.72C133.722 187.776 133.697 187.844 133.698 187.913C133.698 187.983 133.725 188.05 133.774 188.106C133.822 188.161 133.89 188.202 133.968 188.222C134.045 188.241 134.128 188.239 134.203 188.215L137.152 187.295V203.034H138.139V187.295L141.088 188.215C141.164 188.239 141.247 188.241 141.324 188.222C141.402 188.202 141.47 188.162 141.518 188.106C141.567 188.05 141.593 187.983 141.594 187.913C141.595 187.844 141.569 187.776 141.522 187.72C140.095 185.972 138.911 184.086 137.993 182.101Z" fill="#3F3D56"/>
<path d="M259.049 194.948V188.139C243.295 178.146 234.561 178.041 229.438 180.053C222.936 182.608 220.811 189.14 218.367 194.948H259.049Z" fill="#F2F2F2"/>
<path d="M132.282 221.332C128.867 219.031 127.387 212.811 120.373 211.119C116.282 210.132 112.832 211.295 107.048 213.246C99.4261 215.817 96.0673 218.734 91.5562 221.332H132.282Z" fill="#F2F2F2"/>
<path d="M147.471 209.417C142.901 214.409 140.669 219.382 137.756 221.332H259.049V209.417H147.471Z" fill="#F2F2F2"/>
<path d="M217.817 196.225C215.95 200.433 213.718 204.051 209.204 205.161C201.258 207.115 197.694 198.481 182.555 197.076C181.011 196.932 167.612 195.849 155.905 202.608C153.222 204.164 150.795 206.025 148.689 208.14H259.048V196.225H217.817Z" fill="#F2F2F2"/>
<path d="M168.737 204.31C172.825 204.31 176.139 201.452 176.139 197.927C176.139 194.401 172.825 191.543 168.737 191.543C164.648 191.543 161.334 194.401 161.334 197.927C161.334 201.452 164.648 204.31 168.737 204.31Z" fill="#0059F7"/>
<path d="M78.6235 240.107L85.6634 240.106L89.0119 216.692L78.6221 216.693L78.6235 240.107Z" fill="#FFB6B6"/>
<path d="M78.3763 246.439L100.024 246.439V246.203C100.024 244.276 99.1365 242.428 97.5563 241.065C95.9761 239.703 93.833 238.937 91.5984 238.937H91.5979L87.6436 236.35L80.2657 238.937L78.376 238.937L78.3763 246.439Z" fill="#2F2E41"/>
<path d="M82.5851 215.582L76.8624 219.118L58.3242 201.767L66.7701 196.549L82.5851 215.582Z" fill="#FFB6B6"/>
<path d="M87.0637 220.605L69.4667 231.478L69.3072 231.286C68.0057 229.72 67.479 227.771 67.8431 225.87C68.2071 223.969 69.432 222.27 71.2484 221.148L71.2488 221.148L72.7156 217.059L80.4604 215.456L81.9965 214.507L87.0637 220.605Z" fill="#2F2E41"/>
<path d="M56.1887 106.91C56.1887 106.91 12.5437 147.405 20.0928 159.276C27.6418 171.146 64.0549 211.735 64.0549 211.735L74.0375 201.851C65.6476 184.684 56.62 169.681 46.0884 159.781L76.6058 140.341C76.6058 140.341 78.8514 172.521 77.0039 177.577C75.1564 182.633 72.048 179.953 75.1564 182.633C78.2648 185.314 79.8328 185.806 78.1607 187.474C76.4886 189.143 75.2859 227.154 75.2859 227.154H89.6461C89.6461 227.154 103.047 157.126 102.201 154.563C101.356 152 101.841 153.175 101.821 149.908C101.8 146.64 107.928 119.868 107.928 119.868L56.1887 106.91Z" fill="#2F2E41"/>
<path d="M85.8142 31.1025L72.0483 31.8684L63.015 41.8445L47.9848 51.7207L57.5212 76.7473C57.5212 76.7473 57.0516 89.5374 55.4467 91.1444C53.8417 92.7514 51.1774 90.8369 53.8417 94.2831C55.4661 96.4668 56.3858 98.9846 56.5061 101.577C56.5061 101.577 41.3239 112.471 46.7367 115.343C52.1496 118.215 63.0827 110.748 68.6756 115.152C74.2686 119.555 111.423 128.423 111.57 122.236C111.717 116.049 102.293 67.7382 102.293 67.7382L104.465 44.5045L92.031 37.2291L85.8142 31.1025Z" fill="#0059F7"/>
<path d="M64.0247 128.72L59.3585 116.608L50.9624 117.941L56.4242 130.596C56.0921 131.337 56.0065 132.144 56.1769 132.925C56.3474 133.706 56.7671 134.43 57.3889 135.017C58.0108 135.604 58.8101 136.029 59.697 136.246C60.5839 136.462 61.5233 136.461 62.4095 136.242C63.2956 136.024 64.0935 135.596 64.7134 135.008C65.3333 134.42 65.7506 133.694 65.9184 132.913C66.0862 132.131 65.9979 131.325 65.6634 130.584C65.3288 129.843 64.7613 129.198 64.0247 128.72H64.0247Z" fill="#FFB6B6"/>
<path d="M51.6087 49.7715L51.3873 49.851C49.3286 50.5913 47.5102 51.7531 46.0895 53.2358C44.6688 54.7186 43.6886 56.4776 43.2338 58.3605C42.0437 63.2723 40.8728 70.3767 41.7985 77.029C43.4335 88.778 40.0829 93.9475 42.263 97.7071C44.443 101.467 44.988 100.057 44.443 102.877C43.898 105.696 41.173 103.347 43.898 107.106C46.623 110.866 48.2581 109.926 47.1681 111.806C46.0781 113.686 44.443 113.686 46.623 116.035C48.8031 118.385 48.8031 119.325 49.3481 120.265C49.8931 121.205 51.5281 128.254 51.5281 128.254C51.5281 128.254 60.2482 125.905 65.1533 126.844C65.1533 126.844 60.7932 120.265 61.8832 118.855C62.9732 117.445 64.6083 116.975 62.9732 115.566C61.3382 114.156 58.6132 114.626 61.3382 113.216C64.0633 111.806 61.8348 83.1786 61.8348 83.1786L51.6087 49.7715Z" fill="#0059F7"/>
<path d="M123.868 114.668L120.683 102.204L128.687 99.6416L131.51 112.923C132.236 113.413 132.788 114.068 133.106 114.814C133.423 115.56 133.493 116.368 133.307 117.147C133.122 117.925 132.688 118.644 132.054 119.221C131.421 119.799 130.614 120.212 129.723 120.416C128.832 120.619 127.892 120.605 127.011 120.373C126.129 120.141 125.339 119.702 124.731 119.105C124.123 118.508 123.72 117.776 123.567 116.993C123.415 116.209 123.519 115.404 123.868 114.668Z" fill="#FFB6B6"/>
<path d="M91.4629 39.4126L91.7002 39.3832C93.9081 39.11 96.16 39.3049 98.2608 39.9512C100.362 40.5974 102.248 41.6755 103.757 43.092C107.696 46.7854 112.921 52.3706 116.076 58.4933C121.649 69.3069 123.783 74.2285 124.143 78.4204C124.503 82.6124 123.198 81.642 125.34 83.8234C127.483 86.0047 128.428 82.7831 128.32 87.2157C128.212 91.6483 126.25 91.5629 128.303 92.6963C130.355 93.8296 131.759 93.1076 131.282 96.0886C130.805 99.0695 131.364 99.8768 131.454 100.925C131.544 101.973 134.326 108.75 134.326 108.75C134.326 108.75 125.44 110.582 121.785 113.555C121.785 113.555 121.623 105.979 119.849 105.249C118.076 104.519 116.392 104.838 116.96 102.905C117.527 100.972 120.146 100.172 116.968 100.164C113.791 100.157 94.6955 64.7989 94.6955 64.7989L91.4629 39.4126Z" fill="#0059F7"/>
<path d="M78.1387 29.8721C86.1422 29.8721 92.6304 24.2774 92.6304 17.376C92.6304 10.4746 86.1422 4.87988 78.1387 4.87988C70.1351 4.87988 63.647 10.4746 63.647 17.376C63.647 24.2774 70.1351 29.8721 78.1387 29.8721Z" fill="#FFB6B6"/>
<path d="M95.0298 13.3159C93.5413 13.9011 92.5769 18.1399 91.4069 17.1544C90.237 16.169 90.3151 14.8866 88.7378 14.523C87.464 14.228 86.0932 14.5651 84.9314 15.0967C84.7239 15.1905 84.5228 15.2925 84.3268 15.394C84.1974 15.3194 84.0686 15.2493 83.9304 15.1845C82.8911 14.705 81.6782 14.5873 80.5413 14.8558C81.4396 15.1153 82.2206 15.6117 82.7739 16.2748C82.385 16.4995 81.9912 16.7248 81.5883 16.9244C78.2226 18.5992 73.4334 14.9574 69.8907 13.5892C72.1097 17.18 71.0171 18.6671 69.0903 22.3807L69.0238 22.5922C69.1332 21.6615 65.7932 20.9678 65.9869 22.278C66.3253 23.605 66.861 24.8887 67.5809 26.0973C63.8561 22.3835 61.3108 17.8389 61.8479 13.1507C61.9648 12.1658 61.9295 11.1267 62.5186 10.2719C63.1083 9.42154 64.3378 8.8248 65.4254 9.14908C65.3333 7.65396 65.7127 6.16526 66.5234 4.84123C67.334 3.51721 68.5456 2.40735 70.0293 1.62966C71.5131 0.851961 73.2134 0.435497 74.9497 0.424538C76.686 0.413579 78.3933 0.808534 79.89 1.56742C81.2808 2.27113 82.4419 3.26641 83.7166 4.12492C84.9914 4.98342 86.4608 5.73175 88.0772 5.80262C89.1026 5.84527 90.2185 5.6294 91.0995 6.08735C92.1199 6.61874 92.2947 7.73129 92.4478 8.80185C91.5376 8.87923 90.6748 9.18885 89.9697 9.69115C90.9115 9.60832 91.8595 9.78367 92.6791 10.1923C92.6946 10.1983 92.7094 10.2056 92.7234 10.214C93.263 11.9833 93.2077 12.3755 95.0298 13.3159Z" fill="#2F2E41"/>
<path d="M226.15 164.708H192.082C191.896 164.708 191.71 164.677 191.538 164.616C191.365 164.555 191.208 164.465 191.075 164.351C190.943 164.237 190.838 164.102 190.766 163.953C190.695 163.804 190.658 163.645 190.658 163.484C190.658 163.323 190.695 163.163 190.766 163.014C190.838 162.866 190.943 162.73 191.075 162.617C191.208 162.503 191.365 162.413 191.538 162.352C191.71 162.29 191.896 162.259 192.082 162.26H226.15C226.337 162.259 226.522 162.29 226.695 162.352C226.867 162.413 227.024 162.503 227.157 162.617C227.289 162.73 227.394 162.866 227.466 163.014C227.538 163.163 227.574 163.323 227.574 163.484C227.574 163.645 227.538 163.804 227.466 163.953C227.394 164.102 227.289 164.237 227.157 164.351C227.024 164.465 226.867 164.555 226.695 164.616C226.522 164.677 226.337 164.708 226.15 164.708Z" fill="#0059F7"/>
<path d="M43.8539 238.011C43.5701 238.022 43.2892 237.958 43.0492 237.827C42.8092 237.696 42.6217 237.504 42.5121 237.278C42.4025 237.052 42.3761 236.803 42.4365 236.563C42.4969 236.324 42.6412 236.106 42.8498 235.94L42.9447 235.615C42.9322 235.588 42.9197 235.562 42.907 235.536C42.6211 234.954 42.1421 234.458 41.53 234.109C40.918 233.761 40.2003 233.577 39.467 233.579C38.7337 233.581 38.0176 233.77 37.4086 234.123C36.7995 234.475 36.3248 234.974 36.0439 235.558C34.9214 237.89 33.4923 240.225 33.1404 242.69C32.9854 243.779 33.0508 244.884 33.3336 245.954C30.6972 240.995 29.3282 235.605 29.3194 230.15C29.3188 228.781 29.407 227.413 29.5836 226.052C29.7295 224.937 29.9319 223.83 30.1909 222.73C31.6039 216.765 34.6379 211.174 39.0435 206.416C41.1758 205.412 42.9002 203.87 43.9844 201.995C44.3772 201.322 44.6548 200.602 44.8085 199.86C44.568 199.887 43.9016 196.728 44.083 196.535C43.7478 196.096 43.1478 195.878 42.7817 195.45C40.9609 193.321 38.4524 193.693 37.1428 196.586C34.3453 197.803 34.3182 199.822 36.0348 201.764C37.1268 203 37.2769 204.671 38.2351 205.994C38.1365 206.103 38.034 206.208 37.9354 206.317C36.1333 208.315 34.5627 210.461 33.246 212.723C33.5662 210.189 33.184 207.625 32.1309 205.243C31.0636 203.022 29.0631 201.153 27.3015 199.233C25.1854 196.928 20.8462 197.934 20.4734 200.856C20.4698 200.885 20.4663 200.913 20.4628 200.941C20.7245 201.069 20.9806 201.204 21.2313 201.347C21.5461 201.528 21.7901 201.787 21.9312 202.09C22.0723 202.393 22.104 202.726 22.0221 203.045C21.9402 203.363 21.7485 203.653 21.4722 203.877C21.1959 204.1 20.8478 204.246 20.4736 204.296L20.4352 204.301C20.5285 205.114 20.6932 205.92 20.9281 206.712C18.6681 214.248 23.5473 216.993 30.5142 217.116C30.668 217.184 30.8179 217.252 30.9717 217.317C29.6488 220.55 28.819 223.917 28.5032 227.334C28.3244 229.35 28.3349 231.375 28.5347 233.39L28.5229 233.319C28.0181 231.078 26.6322 229.057 24.5993 227.596C21.5799 225.457 17.3141 224.67 14.0567 222.95C13.7105 222.759 13.308 222.656 12.8966 222.656C12.4852 222.655 12.0821 222.755 11.7349 222.946C11.3876 223.136 11.1107 223.408 10.9367 223.729C10.7628 224.051 10.699 224.408 10.7531 224.76C10.7574 224.785 10.7619 224.81 10.7664 224.835C11.252 225.005 11.7248 225.202 12.182 225.423C12.4437 225.55 12.6998 225.686 12.9504 225.828C13.2653 226.01 13.5092 226.269 13.6503 226.572C13.7914 226.875 13.8231 227.208 13.7412 227.526C13.6593 227.845 13.4677 228.135 13.1913 228.358C12.915 228.582 12.567 228.728 12.1927 228.778L12.1544 228.783C12.1268 228.786 12.1031 228.789 12.0756 228.793C12.9052 230.501 14.0697 232.073 15.518 233.441C16.9311 240.02 23.0006 240.644 29.4929 238.728H29.4969C30.2092 241.398 31.2413 243.996 32.5766 246.481H43.5783C43.6177 246.376 43.6532 246.267 43.6887 246.161C42.6704 246.216 41.648 246.164 40.6445 246.005C41.4607 245.141 42.277 244.271 43.0933 243.407C43.1115 243.391 43.1286 243.374 43.1445 243.356C43.5586 242.914 43.9765 242.475 44.3906 242.033L44.3908 242.033C44.4129 240.678 44.2326 239.326 43.8543 238.011L43.8539 238.011Z" fill="#F2F2F2"/>
</svg>
