<svg width="305" height="237" viewBox="0 0 305 237" fill="none" xmlns="http://www.w3.org/2000/svg">
<path d="M37.9994 210.044L42.7172 210.168L40.9352 226.122L37.7383 226.039L37.9994 210.044Z" fill="#FFB6B6"/>
<path d="M48.7065 233.448L48.7064 233.448C48.7064 233.014 48.5036 232.623 48.1902 232.451L44.6692 230.519L42.2687 224.334L42.2323 218.103L37.2858 217.457L36.5704 221.426C36.5704 221.426 38.0434 221.182 36.2248 222.936C34.4062 224.69 35.2819 228.121 35.2819 228.121L34.8853 234.534H38.1587L38.3344 230.546C40.8804 231.746 41.5049 234.534 41.5049 234.534H47.8504C48.3232 234.534 48.7064 234.047 48.7064 233.448H48.7065H48.7065Z" fill="#2F2E41"/>
<path d="M44.91 210.22L49.6278 210.344L47.8458 226.298L44.6489 226.214L44.91 210.22Z" fill="#FFB6B6"/>
<path d="M55.6166 233.623H55.6166C55.6166 233.19 55.4137 232.798 55.1003 232.626L51.5793 230.694L49.1788 224.51L49.1425 218.279L44.1959 217.633L43.4805 221.602C43.4805 221.602 44.9535 221.358 43.1349 223.112C41.3164 224.865 42.192 228.296 42.192 228.296L41.7954 234.709H45.0689L45.2446 230.721C47.7906 231.921 48.415 234.709 48.415 234.709H54.7606C55.2333 234.709 55.6166 234.223 55.6166 233.623L55.6166 233.623H55.6166Z" fill="#2F2E41"/>
<path d="M39.4995 116.641L34.1512 130.826C32.3683 135.555 31.8034 140.741 32.5192 145.806L35.1187 215.495H45.396L49.882 153.436L50.7672 177.95L40.4788 212.877H50.5978L63.5863 177.95L64.5492 151.057L59.9348 130.187L39.4995 116.641L39.4995 116.641Z" fill="#2F2E41"/>
<path d="M184.394 55.9412V20.5078C184.394 9.18164 176.128 2.85975e-09 165.932 2.85975e-09H98.3494C88.1532 -0.000187106 79.8874 9.18131 79.8872 20.5074V214.898C79.8872 226.224 88.1529 235.406 98.3491 235.406H165.931C176.127 235.406 184.393 226.224 184.393 214.898V81.1633H184.393C185.035 81.1633 185.556 80.585 185.556 79.8716L185.557 57.233C185.557 56.5195 185.036 55.9412 184.394 55.9412L184.394 55.9412V55.9412Z" fill="#3F3D56"/>
<path d="M180.927 18.8028V215.939C170.138 215.203 175.626 230.995 166.93 231.491H97.9605C90.227 231.492 83.9564 224.53 83.9541 215.939V18.8028C83.9564 10.2125 90.2267 3.25037 97.9599 3.25146H103.046C101.661 7.03525 112.84 8.26629 113.697 8.2675H149.02C152.697 8.26232 161.568 4.1333 161.245 3.25146H166.927C174.657 3.25293 180.924 10.2128 180.927 18.7998L180.927 18.8028H180.927Z" fill="white"/>
<path d="M79.3435 60.2817C78.8516 60.2817 78.4517 60.726 78.4517 61.2724V69.1976C78.4517 69.744 78.8516 70.1883 79.3435 70.1883C79.8353 70.1883 80.2353 69.744 80.2353 69.1976V61.2724C80.2353 60.726 79.8353 60.2817 79.3435 60.2817Z" fill="#3F3D56"/>
<path d="M79.3435 84.0574C78.8516 84.0574 78.4517 84.5017 78.4517 85.048V100.403C78.4517 100.95 78.8516 101.394 79.3435 101.394C79.8353 101.394 80.2353 100.95 80.2353 100.403V85.048C80.2353 84.5017 79.8353 84.0574 79.3435 84.0574Z" fill="#3F3D56"/>
<path d="M79.3435 105.852C78.8516 105.852 78.4517 106.296 78.4517 106.842V122.198C78.4517 122.744 78.8516 123.188 79.3435 123.188C79.8353 123.188 80.2353 122.744 80.2353 122.198V106.842C80.2353 106.296 79.8353 105.852 79.3435 105.852Z" fill="#3F3D56"/>
<path d="M289.696 222.875L285.464 226.095L272.268 209.495L278.514 204.743L289.696 222.875Z" fill="#FFB6B6"/>
<path d="M275.131 233.802C275.152 234.149 275.573 234.998 275.749 235.284C276.293 236.166 277.377 236.391 278.17 235.787L291.275 225.813C291.816 225.401 291.955 224.58 291.584 223.979L291.21 223.373C291.21 223.373 290.735 221.058 288.015 219.829C288.015 219.829 287.441 222.849 283.264 221.982L281.625 221.067L278.985 229.393L276.299 232.026C275.712 232.602 275.081 232.934 275.131 233.802L275.131 233.802L275.131 233.802Z" fill="#2F2E41"/>
<path d="M258.494 231.424L253.364 231.423L250.924 209.445L257.203 210.313L258.494 231.424Z" fill="#FFB6B6"/>
<path d="M240.919 231.295C240.759 231.594 240.675 232.558 240.675 232.906C240.675 233.974 241.454 234.84 242.416 234.84H258.302C258.958 234.84 259.49 234.249 259.49 233.52V232.786C259.49 232.786 260.276 230.577 258.658 227.856C258.658 227.856 256.647 229.987 253.642 226.649L252.756 224.866L246.342 230.077L242.786 230.563C242.009 230.669 241.319 230.546 240.919 231.295H240.919V231.295Z" fill="#2F2E41"/>
<path d="M240.509 147.897L240.895 153.08L240.126 157.202L241.525 161.547L243.236 184.522L252.154 224.132L258.964 225.725L255.695 186.159L258.231 153.523L240.509 147.897Z" fill="#2F2E41"/>
<path d="M269.445 125.397L243.402 125.798L240.508 147.896L258.23 157.138L257.665 188.698L277.402 220.434L287.914 213.763L270.299 186.811L275.232 141.869L269.444 125.397H269.445Z" fill="#2F2E41"/>
<path d="M250.166 73.4451L245.572 79.9951L247.742 130.218L264.742 129.816L267.636 86.022L264.019 74.7719L262.71 72.2508L261.145 68.9863L251.11 69.7825L250.166 73.4451H250.166V73.4451Z" fill="#E6E6E6"/>
<path d="M243.382 104.504L244.301 114.768L243.172 126.58L241.761 129.782L238.535 142.521C238.535 142.521 235.244 148.092 242.478 148.493C249.712 148.893 273.423 146.287 273.423 146.287C273.423 146.287 276.379 146.206 275.091 139.336C273.01 135.363 274.352 129.765 274.352 129.765L271.615 118.564L272.338 108.118L277.402 80.7961C272.904 76.8702 267.867 74.0603 262.391 72.1572L257.595 86.1665L250.454 73.3627L247.741 75.5725C244.082 76.6383 240.862 78.2772 238.316 80.7957L243.382 104.504Z" fill="#2F2E41"/>
<path d="M157.527 80.1346H106.481C102.982 80.1302 100.146 76.9805 100.142 73.0937V48.7198C100.146 44.8331 102.982 41.6833 106.481 41.679C122.769 36.666 139.853 37.1358 157.527 41.679C161.026 41.6836 163.862 44.8332 163.866 48.7198V73.0937C163.862 76.9803 161.026 80.13 157.527 80.1346H157.527Z" fill="#F2F2F2"/>
<path d="M162.728 105.679H101.28C100.652 105.679 100.143 105.113 100.143 104.415V87.484C100.143 86.7862 100.652 86.2208 101.28 86.22H162.728C163.356 86.2208 163.865 86.7862 163.866 87.484V104.416C163.865 105.113 163.356 105.679 162.728 105.68V105.679ZM101.28 86.7256C100.904 86.726 100.598 87.0653 100.598 87.4839V104.416C100.598 104.834 100.904 105.174 101.28 105.174H162.728C163.105 105.174 163.41 104.834 163.411 104.416V87.4839C163.41 87.0653 163.105 86.726 162.728 86.7256H101.28Z" fill="#E6E6E6"/>
<path d="M120.284 92.4087C119.844 92.419 119.495 92.8235 119.504 93.3122C119.513 93.7863 119.857 94.1682 120.284 94.1783H157.835C158.275 94.197 158.645 93.8161 158.662 93.3277C158.678 92.8393 158.336 92.4282 157.896 92.4095H120.284V92.4087Z" fill="#E6E6E6"/>
<path d="M120.284 97.719C119.844 97.7293 119.495 98.1338 119.504 98.6225C119.513 99.0966 119.857 99.4785 120.284 99.4886H157.835C158.275 99.5073 158.645 99.1265 158.662 98.638C158.678 98.1496 158.336 97.7385 157.896 97.7198H120.284V97.719Z" fill="#E6E6E6"/>
<path d="M109.735 99.4895C111.495 99.4895 112.922 97.9048 112.922 95.9499C112.922 93.9951 111.495 92.4104 109.735 92.4104C107.975 92.4104 106.549 93.9951 106.549 95.9499C106.549 97.9048 107.975 99.4895 109.735 99.4895Z" fill="#E6E6E6"/>
<path d="M162.728 188.786H101.28C100.652 188.785 100.143 188.22 100.143 187.522V170.591C100.143 169.893 100.652 169.328 101.28 169.327H162.728C163.356 169.328 163.865 169.893 163.866 170.591V187.522C163.865 188.22 163.356 188.785 162.728 188.786V188.786ZM101.28 169.832C100.904 169.833 100.598 170.172 100.598 170.591V187.522C100.598 187.941 100.904 188.28 101.28 188.281L155.748 187.684C156.125 187.684 161.84 185.316 161.84 184.898L163.411 170.591C163.41 170.172 163.105 169.833 162.728 169.832H101.28Z" fill="#E6E6E6"/>
<path d="M120.284 178.04C119.844 178.029 119.48 178.417 119.47 178.906C119.461 179.394 119.81 179.799 120.25 179.809C120.261 179.809 120.273 179.809 120.284 179.809H157.835C158.275 179.828 158.645 179.447 158.662 178.959C158.678 178.47 158.336 178.059 157.896 178.04H120.284V178.04V178.04Z" fill="#E6E6E6"/>
<path d="M109.735 182.597C111.495 182.597 112.922 181.012 112.922 179.057C112.922 177.102 111.495 175.518 109.735 175.518C107.975 175.518 106.549 177.102 106.549 179.057C106.549 181.012 107.975 182.597 109.735 182.597Z" fill="#E6E6E6"/>
<path d="M162.728 153.752H101.28C100.652 153.752 100.143 153.186 100.143 152.489V135.557C100.143 134.859 100.652 134.294 101.28 134.293H162.728C163.356 134.294 163.865 134.859 163.866 135.557V152.489C163.865 153.187 163.356 153.752 162.728 153.753V153.752ZM101.28 134.799C100.904 134.799 100.598 135.139 100.598 135.557V152.489C100.598 152.908 100.904 153.247 101.28 153.247L155.748 152.651C156.125 152.651 161.84 150.283 161.84 149.864L163.411 135.557C163.41 135.139 163.105 134.799 162.728 134.799H101.28Z" fill="#E6E6E6"/>
<path d="M120.284 143.006C119.844 142.996 119.48 143.384 119.47 143.872C119.461 144.361 119.81 144.766 120.25 144.776C120.261 144.776 120.273 144.776 120.284 144.776H157.835C158.275 144.795 158.645 144.414 158.662 143.925C158.678 143.437 158.336 143.026 157.896 143.007H120.284V143.006V143.006Z" fill="#E6E6E6"/>
<path d="M109.735 147.563C111.495 147.563 112.922 145.978 112.922 144.023C112.922 142.069 111.495 140.484 109.735 140.484C107.975 140.484 106.549 142.069 106.549 144.023C106.549 145.978 107.975 147.563 109.735 147.563Z" fill="#E6E6E6"/>
<path d="M255.232 68.5216C260.19 68.5216 264.21 64.0569 264.21 58.5494C264.21 53.0419 260.19 48.5771 255.232 48.5771C250.274 48.5771 246.255 53.0419 246.255 58.5494C246.255 64.0569 250.274 68.5216 255.232 68.5216Z" fill="#FFB6B6"/>
<path d="M261.826 66.7428C262.32 66.8364 262.901 65.505 263.456 64.2083C264.617 61.4938 265.355 59.7682 265.411 57.329C265.459 55.2501 264.939 55.7957 264.433 51.1738C264.267 49.6494 261.922 49.6523 261.445 48.9284C260.639 47.7057 261.876 47.2014 259.87 46.4669C256.114 45.0911 254.415 47.2284 252.03 47.4125C251.97 47.4171 250.787 48.7018 250.126 48.7682C248.969 48.8846 247.3 48.6844 246.552 46.726C245.852 44.8948 245.388 50.2458 246.014 50.9081C246.545 51.4703 247.461 52.8815 247.484 52.9842C247.511 53.1003 245.306 50.3876 244.938 51.5055C244.673 52.31 245.507 56.4493 246.18 56.6048C246.744 56.7349 248.121 54.673 247.81 55.5186C247.089 57.4799 251.423 58.7313 256.611 54.7945C256.795 54.6549 256.621 54.8775 257.263 56.6048C258.072 58.7834 258.255 58.9014 258.24 59.5014C258.21 60.8003 257.332 61.1827 257.589 62.0359C257.796 62.7269 258.609 63.2618 259.218 63.1221C259.906 62.9644 260.024 62.0191 260.522 62.0359C260.949 62.0503 261.455 62.7639 261.5 63.4842C261.595 65.0015 259.573 65.4188 259.218 67.4669C259.018 68.6228 261.371 66.6567 261.826 66.7428Z" fill="#2F2E41"/>
<path d="M282.142 146.454C282.181 145.337 281.979 144.227 281.552 143.215L282.477 131.577L277.477 131.25L277.078 143.093C276.606 144.08 276.354 145.178 276.343 146.296C276.28 149.091 277.527 151.393 279.128 151.438C280.729 151.482 282.079 149.252 282.141 146.457L282.142 146.454Z" fill="#FFB6B6"/>
<path d="M271.507 99.5263L275.449 113.062L276.581 140.706L283.18 140.557L283.692 110.275C283.692 110.275 280.403 87.8995 279.302 82.8703C278.201 77.8411 268.046 79.7049 268.046 79.7049L271.507 99.5263V99.5263V99.5263Z" fill="#2F2E41"/>
<path d="M107.99 64.2363C109.854 64.9238 111.808 65.6199 113.798 65.5025C114.704 65.449 115.575 65.2091 116.397 64.7824C117.239 64.3447 118.009 63.7504 118.862 63.3358C121.996 61.8119 125.105 64.4151 128.028 65.3922C129.486 65.8797 131.02 65.9963 132.446 65.3174C134.022 64.5672 135.211 63.1357 136.509 61.9405C139.419 59.2606 143.215 57.8159 146.991 57.9251C151.134 58.0449 155.143 60.0774 157.996 63.4019C158.235 63.6807 158.615 63.258 158.376 62.9797C155.883 60.0742 152.524 58.1154 148.946 57.5219C145.361 56.927 141.64 57.7218 138.488 59.7049C136.893 60.7085 135.613 62.0822 134.208 63.3641C132.84 64.6125 131.318 65.417 129.514 65.1517C126.406 64.6946 123.733 62.0344 120.51 62.2755C118.451 62.4296 116.981 64.1501 115.043 64.6986C112.732 65.353 110.317 64.4661 108.132 63.6604C107.803 63.5391 107.662 64.1156 107.99 64.2363L107.99 64.2362V64.2363Z" fill="#3F3D56"/>
<path d="M113.825 67.4186C114.924 67.4186 115.816 66.4283 115.816 65.2067C115.816 63.9852 114.924 62.9949 113.825 62.9949C112.725 62.9949 111.833 63.9852 111.833 65.2067C111.833 66.4283 112.725 67.4186 113.825 67.4186Z" fill="#0059F7"/>
<path d="M131.015 67.5165C132.114 67.5165 133.006 66.5262 133.006 65.3046C133.006 64.0831 132.114 63.0928 131.015 63.0928C129.915 63.0928 129.023 64.0831 129.023 65.3046C129.023 66.5262 129.915 67.5165 131.015 67.5165Z" fill="#0059F7"/>
<path d="M148.472 60.0136C149.571 60.0136 150.463 59.0233 150.463 57.8017C150.463 56.5801 149.571 55.5898 148.472 55.5898C147.372 55.5898 146.48 56.5801 146.48 57.8017C146.48 59.0233 147.372 60.0136 148.472 60.0136Z" fill="#0059F7"/>
<path d="M32.9308 134.539C27.0436 153.159 34.5445 167.829 32.9879 158.366C31.687 150.457 53.8542 126.392 60.5266 131.354C60.3869 130.551 56.1457 116.072 55.73 116.005C56.3116 114.378 55.501 114.363 55.468 113.529C55.3418 110.309 56.0156 106.967 57.328 103.527C58.1882 100.869 58.2032 98.5855 57.3696 96.7442C56.6523 95.2309 55.4473 94.074 53.9954 93.5049L49.6231 87.6392C48.4841 86.1125 46.8043 82.8182 45.0196 82.8305L35.4388 82.4503C35.165 82.2676 31.8008 85.4811 28.5252 87.058C24.9725 88.7698 25.7054 93.442 25.7143 93.5017L25.7226 93.5574L25.7616 93.5973L30.9837 110.671L35.7019 115.583C35.4628 116.353 35.5227 116.931 35.9703 117.263C35.3277 117.79 32.4692 133.588 32.9308 134.141V134.539L32.9308 134.539Z" fill="#0059F7"/>
<path d="M82.1601 100.748C81.4477 101.064 80.8137 101.565 80.3112 102.209L72.7241 105.098L74.0674 109.067L81.6189 105.709C82.3842 105.769 83.1511 105.624 83.8556 105.287C85.6286 104.469 86.6869 102.791 86.2181 101.538C85.7494 100.285 83.9331 99.931 82.1601 100.748V100.748Z" fill="#FFB6B6"/>
<path d="M41.688 88.0077L58.9963 113.96L79.285 107.754L78.403 101.874L62.9536 105.125L54.3348 90.4062C51.5203 84.363 45.9732 83.146 41.688 88.0073V88.0077Z" fill="#0059F7"/>
<path d="M166 218.872H158.101C156.722 218.872 155.6 217.625 155.6 216.093C154.102 211.574 153.913 207.521 155.6 204.134C155.6 202.602 156.722 201.355 158.101 201.355C160.437 199.474 163.16 200.045 166 201.355C167.379 201.355 168.502 202.602 168.502 204.134C167.543 207.966 167.613 211.963 168.502 216.093C168.502 217.625 167.379 218.872 166 218.872Z" fill="#0059F7"/>
<path d="M165.236 206.678H158.857C158.637 206.678 158.458 206.479 158.458 206.235C158.458 205.99 158.637 205.792 158.857 205.792H165.236C165.456 205.792 165.635 205.99 165.635 206.235C165.635 206.479 165.456 206.678 165.236 206.678Z" fill="white"/>
<path d="M165.236 210.22H158.857C158.637 210.22 158.458 210.022 158.458 209.777C158.458 209.533 158.637 209.334 158.857 209.334H165.236C165.456 209.334 165.635 209.533 165.635 209.777C165.635 210.022 165.456 210.22 165.236 210.22Z" fill="white"/>
<path d="M165.236 213.762H158.857C158.637 213.762 158.458 213.564 158.458 213.32C158.458 213.075 158.637 212.877 158.857 212.877H165.236C165.456 212.877 165.635 213.075 165.635 213.32C165.635 213.564 165.456 213.762 165.236 213.762Z" fill="white"/>
<path d="M305 234.973H0V235.643H305V234.973Z" fill="#E6E6E6"/>
<path d="M238.042 145.525C238.301 148.307 239.803 150.413 241.396 150.23C242.989 150.046 244.071 147.643 243.812 144.862C243.722 143.749 243.393 142.675 242.854 141.732L241.622 129.961L236.661 130.72L238.402 142.242C238.047 143.288 237.924 144.413 238.041 145.523L238.042 145.525Z" fill="#FFB6B6"/>
<path d="M245.342 97.8151L247.398 77.7539C247.398 77.7539 237.144 76.7772 236.4 81.8866C235.655 86.996 233.951 109.589 233.951 109.589L236.591 139.733L243.181 139.31L242.364 111.651L245.342 97.8151V97.8151Z" fill="#2F2E41"/>
<path d="M47.2516 80.2405L33.3967 81.6419L32.9878 65.646L48.0818 65.1699L47.2516 80.2405Z" fill="#2F2E41"/>
<path d="M40.2457 78.0932C44.2614 78.0932 47.5168 74.4771 47.5168 70.0163C47.5168 65.5556 44.2614 61.9395 40.2457 61.9395C36.23 61.9395 32.9746 65.5556 32.9746 70.0163C32.9746 74.4771 36.23 78.0932 40.2457 78.0932Z" fill="#FFB6B6"/>
<path d="M46.0945 62.1467C46.0433 60.1426 43.7984 59.9256 42.0493 59.431L40.4632 58.5166C38.9063 58.0764 37.2545 58.386 35.914 59.3694L31.6846 62.2154C29.7856 63.6084 29.4839 65.8599 28.7117 68.2378L27.314 71.7187C26.5538 74.0596 27.5583 77.1613 28.3268 79.4988L28.6488 80.4783L28.1453 83.684L36.959 83.2267L37.7424 78.2779L36.238 76.3994C35.7041 75.7328 35.6608 74.7431 36.134 74.0221H36.134C37.8358 71.4289 37.5204 67.7948 37.5204 67.7948L39.6742 69.0999C41.0893 69.3143 42.3504 69.2908 43.46 69.0332C44.6803 68.75 45.7174 68.1836 46.5746 67.3392L47.3424 70.2081C47.5402 73.7788 46.9396 74.7265 44.0745 78.2192L49.0987 81.723L48.9129 79.8269C48.4709 75.3163 49.8185 71.7594 49.6296 68.0883C49.499 65.5498 48.1399 63.2881 46.0946 62.1467H46.0946H46.0945Z" fill="#2F2E41"/>
<path d="M47.2978 130.251C46.5879 129.928 45.8188 129.799 45.0547 129.874L37.7914 126.095L36.2739 129.987L43.8051 133.401C44.3182 134.035 44.9604 134.522 45.678 134.824C47.4643 135.604 49.2753 135.214 49.7221 133.951C50.169 132.688 49.084 131.032 47.2977 130.251H47.2978Z" fill="#FFB6B6"/>
<path d="M26.1632 89.8495L22.3755 121.873L40.8481 133.07L43.8916 128.161L30.7482 118.574L33.7574 101.336C35.5139 94.818 32.2861 89.6611 26.1635 89.8492L26.1632 89.8495Z" fill="#0059F7"/>
</svg>
