<svg width="449" height="115" viewBox="0 0 449 115" fill="none" xmlns="http://www.w3.org/2000/svg">
<path d="M84.6253 57.814L78.1916 61.4577C77.525 61.8353 76.6988 61.3537 76.6988 60.5876V27.0375C76.6988 26.6907 76.5191 26.3686 76.224 26.1865L46.2099 7.66441C45.5627 7.26504 45.5805 6.31805 46.2423 5.94328L52.6902 2.29147C53.0076 2.1117 53.3977 2.11904 53.7081 2.31061L84.6577 21.41C84.9528 21.5921 85.1325 21.9142 85.1325 22.261V56.9438C85.1325 57.3041 84.9388 57.6364 84.6253 57.814Z" fill="#0059F7"/>
<path d="M101.637 33.3443L96.4079 29.0255C95.7558 28.4869 94.7711 28.9508 94.7711 29.7966V62.9384C94.7711 63.2857 94.5909 63.6082 94.2951 63.7902L60.3074 84.6987C60.0115 84.8807 59.8313 85.2031 59.8313 85.5504V91.5492C59.8313 92.334 60.694 92.813 61.3601 92.398L101.529 67.3733C101.822 67.1907 102 66.8698 102 66.5245V34.1153C102 33.817 101.867 33.5343 101.637 33.3443Z" fill="#0059F7"/>
<path d="M102 88.0051V82.5489C102 81.7781 101.165 81.2971 100.498 81.6841L60.3293 105.003C60.021 105.181 59.8313 105.511 59.8313 105.867V111.892C59.8313 112.668 60.6759 113.148 61.3425 112.752L101.511 88.8646C101.814 88.6844 102 88.3578 102 88.0051Z" fill="#0059F7"/>
<path d="M67.0602 39.1316V31.8428C67.0602 31.4805 66.8643 31.1465 66.5479 30.9698L34.4246 13.0247C34.1165 12.8526 33.7406 12.8556 33.4353 13.0325L2.49847 30.967C2.18993 31.1459 2 31.4755 2 31.8322V39.1014C2 39.8657 2.82268 40.3475 3.48928 39.9735L33.4474 23.1666C33.7464 22.9989 34.1106 22.996 34.4122 23.1591L65.5847 40.0113C66.251 40.3715 67.0602 39.889 67.0602 39.1316Z" fill="#0059F7"/>
<path d="M39.8009 36.9279L34.4526 33.394C34.1318 33.182 33.7178 33.1728 33.3878 33.3703L2.48651 51.862C2.18473 52.0426 2 52.3684 2 52.7201V88.001C2 88.3559 2.18808 88.6842 2.49422 88.8637L43.2653 112.768C43.932 113.159 44.7711 112.678 44.7711 111.905V105.859C44.7711 105.507 44.5863 105.181 44.2844 105.001L10.318 84.6856C10.0161 84.505 9.83133 84.1791 9.83133 83.8274V56.3157C9.83133 55.9569 10.0235 55.6256 10.3349 55.4476L39.746 38.6303C40.3928 38.2605 40.4225 37.3386 39.8009 36.9279Z" fill="#0059F7"/>
<path d="M44.7711 84.997V91.0377C44.7711 91.8039 43.9449 92.2854 43.2783 91.9079L19.9771 78.7111C19.6636 78.5336 19.4699 78.2012 19.4699 77.841V62.244C19.4699 61.9082 19.6384 61.5948 19.9186 61.4096L25.1475 57.9547C25.8123 57.5154 26.6988 57.9921 26.6988 58.789V74.239C26.6988 74.6096 26.9038 74.9499 27.2315 75.1231L44.2384 84.1129C44.5661 84.2861 44.7711 84.6264 44.7711 84.997Z" fill="#0059F7"/>
<path d="M84.6253 57.814L78.1916 61.4577C77.525 61.8353 76.6988 61.3537 76.6988 60.5876V27.0375C76.6988 26.6907 76.5191 26.3686 76.224 26.1865L46.2099 7.66441C45.5627 7.26504 45.5805 6.31805 46.2423 5.94328L52.6902 2.29147C53.0076 2.1117 53.3977 2.11904 53.7081 2.31061L84.6577 21.41C84.9528 21.5921 85.1325 21.9142 85.1325 22.261V56.9438C85.1325 57.3041 84.9388 57.6364 84.6253 57.814Z" stroke="#0059F7" stroke-width="3" stroke-linecap="round" stroke-linejoin="round"/>
<path d="M101.637 33.3443L96.4079 29.0255C95.7558 28.4869 94.7711 28.9508 94.7711 29.7966V62.9384C94.7711 63.2857 94.5909 63.6082 94.2951 63.7902L60.3074 84.6987C60.0115 84.8807 59.8313 85.2031 59.8313 85.5504V91.5492C59.8313 92.334 60.694 92.813 61.3601 92.398L101.529 67.3733C101.822 67.1907 102 66.8698 102 66.5245V34.1153C102 33.817 101.867 33.5343 101.637 33.3443Z" stroke="#0059F7" stroke-width="3" stroke-linecap="round" stroke-linejoin="round"/>
<path d="M102 88.0051V82.5489C102 81.7781 101.165 81.2971 100.498 81.6841L60.3293 105.003C60.021 105.181 59.8313 105.511 59.8313 105.867V111.892C59.8313 112.668 60.6759 113.148 61.3425 112.752L101.511 88.8646C101.814 88.6844 102 88.3578 102 88.0051Z" stroke="#0059F7" stroke-width="3" stroke-linecap="round" stroke-linejoin="round"/>
<path d="M67.0602 39.1316V31.8428C67.0602 31.4805 66.8643 31.1465 66.5479 30.9698L34.4246 13.0247C34.1165 12.8526 33.7406 12.8556 33.4353 13.0325L2.49847 30.967C2.18993 31.1459 2 31.4755 2 31.8322V39.1014C2 39.8657 2.82268 40.3475 3.48928 39.9735L33.4474 23.1666C33.7464 22.9989 34.1106 22.996 34.4122 23.1591L65.5847 40.0113C66.251 40.3715 67.0602 39.889 67.0602 39.1316Z" stroke="#0059F7" stroke-width="3" stroke-linecap="round" stroke-linejoin="round"/>
<path d="M39.8009 36.9279L34.4526 33.394C34.1318 33.182 33.7178 33.1728 33.3878 33.3703L2.48651 51.862C2.18473 52.0426 2 52.3684 2 52.7201V88.001C2 88.3559 2.18808 88.6842 2.49422 88.8637L43.2653 112.768C43.932 113.159 44.7711 112.678 44.7711 111.905V105.859C44.7711 105.507 44.5863 105.181 44.2844 105.001L10.318 84.6856C10.0161 84.505 9.83133 84.1791 9.83133 83.8274V56.3157C9.83133 55.9569 10.0235 55.6256 10.3349 55.4476L39.746 38.6303C40.3928 38.2605 40.4225 37.3386 39.8009 36.9279Z" stroke="#0059F7" stroke-width="3" stroke-linecap="round" stroke-linejoin="round"/>
<path d="M44.7711 84.997V91.0377C44.7711 91.8039 43.9449 92.2854 43.2783 91.9079L19.9771 78.7111C19.6636 78.5336 19.4699 78.2012 19.4699 77.841V62.244C19.4699 61.9082 19.6384 61.5948 19.9186 61.4096L25.1475 57.9547C25.8123 57.5154 26.6988 57.9921 26.6988 58.789V74.239C26.6988 74.6096 26.9038 74.9499 27.2315 75.1231L44.2384 84.1129C44.5661 84.2861 44.7711 84.6264 44.7711 84.997Z" stroke="#0059F7" stroke-width="3" stroke-linecap="round" stroke-linejoin="round"/>
<path d="M145.703 77L137.109 48.9971H136.89C136.922 49.6644 136.971 50.6735 137.036 52.0244C137.118 53.359 137.191 54.7832 137.256 56.2969C137.321 57.8105 137.354 59.1777 137.354 60.3984V77H130.591V41.3066H140.894L149.341 68.6016H149.487L158.447 41.3066H168.75V77H161.694V60.1055C161.694 58.9824 161.711 57.6885 161.743 56.2236C161.792 54.7588 161.849 53.3672 161.914 52.0488C161.979 50.7142 162.028 49.7132 162.061 49.0459H161.841L152.637 77H145.703ZM188.354 49.1436C192.017 49.1436 194.824 49.9411 196.777 51.5361C198.73 53.1312 199.707 55.5563 199.707 58.8115V77H194.507L193.066 73.2891H192.871C192.09 74.2656 191.292 75.0632 190.479 75.6816C189.665 76.3001 188.729 76.7559 187.671 77.0488C186.613 77.3418 185.327 77.4883 183.813 77.4883C182.202 77.4883 180.754 77.179 179.468 76.5605C178.198 75.9421 177.197 74.998 176.465 73.7285C175.732 72.4427 175.366 70.8151 175.366 68.8457C175.366 65.9486 176.383 63.8164 178.418 62.4492C180.452 61.0658 183.504 60.3008 187.573 60.1543L192.31 60.0078V58.8115C192.31 57.3792 191.935 56.3294 191.187 55.6621C190.438 54.9948 189.396 54.6611 188.062 54.6611C186.743 54.6611 185.449 54.8483 184.18 55.2227C182.91 55.597 181.641 56.069 180.371 56.6387L177.905 51.6094C179.354 50.8444 180.973 50.2422 182.764 49.8027C184.57 49.3633 186.434 49.1436 188.354 49.1436ZM192.31 64.3535L189.429 64.4512C187.02 64.5163 185.343 64.9476 184.399 65.7451C183.472 66.5426 183.008 67.5924 183.008 68.8945C183.008 70.0339 183.341 70.8477 184.009 71.3359C184.676 71.8079 185.547 72.0439 186.621 72.0439C188.216 72.0439 189.559 71.5719 190.649 70.6279C191.756 69.6839 192.31 68.3411 192.31 66.5996V64.3535ZM222.632 49.1924C223.006 49.1924 223.438 49.2168 223.926 49.2656C224.43 49.2982 224.837 49.347 225.146 49.4121L224.585 56.3945C224.341 56.3132 223.991 56.2562 223.535 56.2236C223.096 56.1748 222.713 56.1504 222.388 56.1504C221.427 56.1504 220.492 56.2725 219.58 56.5166C218.685 56.7607 217.879 57.1595 217.163 57.7129C216.447 58.25 215.877 58.9661 215.454 59.8613C215.047 60.7402 214.844 61.8226 214.844 63.1084V77H207.397V49.7051H213.037L214.136 54.2949H214.502C215.039 53.3672 215.706 52.5208 216.504 51.7559C217.318 50.9746 218.237 50.3561 219.263 49.9004C220.304 49.4284 221.427 49.1924 222.632 49.1924ZM237.549 39.0117V56.0039C237.549 57.0293 237.508 58.0547 237.427 59.0801C237.345 60.1055 237.256 61.1309 237.158 62.1562H237.256C237.76 61.4401 238.273 60.7321 238.794 60.0322C239.331 59.3324 239.901 58.6569 240.503 58.0059L248.145 49.7051H256.543L245.703 61.5459L257.202 77H248.608L240.747 65.9404L237.549 68.5039V77H230.103V39.0117H237.549ZM272.363 49.1924C274.886 49.1924 277.059 49.6807 278.882 50.6572C280.705 51.6175 282.113 53.0173 283.105 54.8564C284.098 56.6956 284.595 58.9417 284.595 61.5947V65.208H266.992C267.074 67.3076 267.7 68.9596 268.872 70.1641C270.06 71.3522 271.704 71.9463 273.804 71.9463C275.545 71.9463 277.14 71.7673 278.589 71.4092C280.037 71.0511 281.527 70.514 283.057 69.7979V75.5596C281.706 76.2269 280.29 76.7152 278.809 77.0244C277.344 77.3337 275.562 77.4883 273.462 77.4883C270.728 77.4883 268.302 76.9837 266.187 75.9746C264.087 74.9655 262.435 73.4274 261.23 71.3604C260.042 69.2933 259.448 66.6891 259.448 63.5479C259.448 60.3577 259.985 57.7048 261.06 55.5889C262.15 53.4567 263.664 51.8617 265.601 50.8037C267.537 49.7295 269.792 49.1924 272.363 49.1924ZM272.412 54.4902C270.964 54.4902 269.759 54.9541 268.799 55.8818C267.855 56.8096 267.31 58.2663 267.163 60.252H277.612C277.596 59.1452 277.393 58.1605 277.002 57.2979C276.628 56.4352 276.058 55.7516 275.293 55.2471C274.544 54.7425 273.584 54.4902 272.412 54.4902ZM302.148 71.5557C302.962 71.5557 303.752 71.4743 304.517 71.3115C305.298 71.1488 306.071 70.9453 306.836 70.7012V76.2432C306.038 76.6012 305.046 76.8942 303.857 77.1221C302.686 77.3662 301.4 77.4883 300 77.4883C298.372 77.4883 296.908 77.2279 295.605 76.707C294.32 76.1699 293.302 75.2503 292.554 73.9482C291.821 72.6299 291.455 70.7988 291.455 68.4551V55.2959H287.891V52.1465L291.992 49.6562L294.141 43.8945H298.901V49.7051H306.543V55.2959H298.901V68.4551C298.901 69.4967 299.194 70.278 299.78 70.7988C300.382 71.3034 301.172 71.5557 302.148 71.5557ZM340.967 41.3066L328.833 77H320.581L308.472 41.3066H316.113L322.827 62.5469C322.941 62.9049 323.128 63.5804 323.389 64.5732C323.649 65.5498 323.91 66.5915 324.17 67.6982C324.447 68.7887 324.634 69.6921 324.731 70.4082C324.829 69.6921 325 68.7887 325.244 67.6982C325.505 66.6077 325.757 65.5742 326.001 64.5977C326.261 63.6048 326.449 62.9212 326.562 62.5469L333.325 41.3066H340.967ZM356.079 49.1436C359.741 49.1436 362.549 49.9411 364.502 51.5361C366.455 53.1312 367.432 55.5563 367.432 58.8115V77H362.231L360.791 73.2891H360.596C359.814 74.2656 359.017 75.0632 358.203 75.6816C357.389 76.3001 356.453 76.7559 355.396 77.0488C354.338 77.3418 353.052 77.4883 351.538 77.4883C349.927 77.4883 348.478 77.179 347.192 76.5605C345.923 75.9421 344.922 74.998 344.189 73.7285C343.457 72.4427 343.091 70.8151 343.091 68.8457C343.091 65.9486 344.108 63.8164 346.143 62.4492C348.177 61.0658 351.229 60.3008 355.298 60.1543L360.034 60.0078V58.8115C360.034 57.3792 359.66 56.3294 358.911 55.6621C358.162 54.9948 357.121 54.6611 355.786 54.6611C354.468 54.6611 353.174 54.8483 351.904 55.2227C350.635 55.597 349.365 56.069 348.096 56.6387L345.63 51.6094C347.078 50.8444 348.698 50.2422 350.488 49.8027C352.295 49.3633 354.159 49.1436 356.079 49.1436ZM360.034 64.3535L357.153 64.4512C354.744 64.5163 353.068 64.9476 352.124 65.7451C351.196 66.5426 350.732 67.5924 350.732 68.8945C350.732 70.0339 351.066 70.8477 351.733 71.3359C352.401 71.8079 353.271 72.0439 354.346 72.0439C355.941 72.0439 357.284 71.5719 358.374 70.6279C359.481 69.6839 360.034 68.3411 360.034 66.5996V64.3535ZM382.568 77H375.122V39.0117H382.568V77ZM415.454 49.7051V77H409.741L408.74 73.5088H408.35C407.764 74.4365 407.031 75.1934 406.152 75.7793C405.273 76.3652 404.305 76.7965 403.247 77.0732C402.189 77.3499 401.09 77.4883 399.951 77.4883C397.998 77.4883 396.297 77.1465 394.849 76.4629C393.4 75.763 392.269 74.6807 391.455 73.2158C390.658 71.751 390.259 69.8467 390.259 67.5029V49.7051H397.705V65.6475C397.705 67.6006 398.055 69.0736 398.755 70.0664C399.455 71.0592 400.57 71.5557 402.1 71.5557C403.613 71.5557 404.801 71.2139 405.664 70.5303C406.527 69.8304 407.129 68.8132 407.471 67.4785C407.829 66.1276 408.008 64.4837 408.008 62.5469V49.7051H415.454ZM434.521 49.1924C437.044 49.1924 439.217 49.6807 441.04 50.6572C442.863 51.6175 444.271 53.0173 445.264 54.8564C446.257 56.6956 446.753 58.9417 446.753 61.5947V65.208H429.15C429.232 67.3076 429.858 68.9596 431.03 70.1641C432.218 71.3522 433.862 71.9463 435.962 71.9463C437.703 71.9463 439.299 71.7673 440.747 71.4092C442.196 71.0511 443.685 70.514 445.215 69.7979V75.5596C443.864 76.2269 442.448 76.7152 440.967 77.0244C439.502 77.3337 437.72 77.4883 435.62 77.4883C432.886 77.4883 430.461 76.9837 428.345 75.9746C426.245 74.9655 424.593 73.4274 423.389 71.3604C422.201 69.2933 421.606 66.6891 421.606 63.5479C421.606 60.3577 422.144 57.7048 423.218 55.5889C424.308 53.4567 425.822 51.8617 427.759 50.8037C429.696 49.7295 431.95 49.1924 434.521 49.1924ZM434.57 54.4902C433.122 54.4902 431.917 54.9541 430.957 55.8818C430.013 56.8096 429.468 58.2663 429.321 60.252H439.771C439.754 59.1452 439.551 58.1605 439.16 57.2979C438.786 56.4352 438.216 55.7516 437.451 55.2471C436.702 54.7425 435.742 54.4902 434.57 54.4902Z" fill="#0059F7"/>
</svg>
