<svg width="60" height="16" viewBox="0 0 60 16" fill="none" xmlns="http://www.w3.org/2000/svg">
<g clip-path="url(#clip0_152_32)">
<g filter="url(#filter0_d_152_32)">
<path d="M0 8.00009C1.46447 9.56219 1.60934 11.9511 3.75 12.0001C6.19014 12.056 7.5 7.00009 7.5 7.00009C7.5 7.00009 9.16499 3.4875 11.25 3.00009C14.9577 2.13337 11.2101 11.6331 15 12.0001C19.1514 12.4021 14.591 2.31413 18.75 2.00009C20.2613 1.88598 21.1796 2.25602 22.5 3.00009C24.6264 4.19834 23.9484 7.18775 26.25 8.00009C27.631 8.4875 28.6135 7.52875 30 8.00009C32.0273 8.68925 31.6134 11.8588 33.75 12.0001C36.5071 12.1825 34.7429 5.81772 37.5 6.00009C39.6365 6.14142 39.1093 9.95106 41.25 10.0001C43.6901 10.056 42.5737 5.26539 45 5.00009C48.0828 4.663 45.6488 12.0001 48.75 12.0001C51.8512 12.0001 49.3988 5.00328 52.5 5.00009C54.1597 4.99839 54.594 7.11135 56.25 7.00009C58.3864 6.85656 59.9944 5.1413 60 3.00009" stroke="#39E75F"/>
</g>
</g>
<defs>
<filter id="filter0_d_152_32" x="-2.36475" y="0.479736" width="64.8647" height="15.032" filterUnits="userSpaceOnUse" color-interpolation-filters="sRGB">
<feFlood flood-opacity="0" result="BackgroundImageFix"/>
<feColorMatrix in="SourceAlpha" type="matrix" values="0 0 0 0 0 0 0 0 0 0 0 0 0 0 0 0 0 0 127 0" result="hardAlpha"/>
<feOffset dy="1"/>
<feGaussianBlur stdDeviation="1"/>
<feComposite in2="hardAlpha" operator="out"/>
<feColorMatrix type="matrix" values="0 0 0 0 0.223529 0 0 0 0 0.905882 0 0 0 0 0.372549 0 0 0 1 0"/>
<feBlend mode="normal" in2="BackgroundImageFix" result="effect1_dropShadow_152_32"/>
<feBlend mode="normal" in="SourceGraphic" in2="effect1_dropShadow_152_32" result="shape"/>
</filter>
<clipPath id="clip0_152_32">
<rect width="60" height="16" fill="white"/>
</clipPath>
</defs>
</svg>
