<svg width="60" height="16" viewBox="0 0 60 16" fill="none" xmlns="http://www.w3.org/2000/svg">
<g clip-path="url(#clip0_152_16)">
<g filter="url(#filter0_d_152_16)">
<path d="M0 4.99998C1.17157 6.56208 1.65863 7.58102 3 8.99998C4.23668 10.3082 4.76851 11.5073 6.5 12C8.64133 12.6093 8.35961 12.0052 10 10.5C11.5495 9.07813 11.9184 5.79922 14 5.49998C16.3907 5.15632 15.5877 10.3811 18 10.5M18 10.5C19.0502 10.5518 16.9728 10.7247 18 10.5ZM18 10.5C19.3353 10.2079 21.5 7.49997 22.5 6.49997C23.5 5.49997 25.0919 3 26.5 3C28 3 29.0538 8.25944 30 8.5C31.1035 8.78054 31.904 5.69174 33 6C34.1278 6.3172 33.9106 7.43096 35 6.99998C36.4181 6.43897 35.9782 3.90102 37.5 3.99998C39.0709 4.10213 38.0763 6.82813 39.5 7.49998C40.5595 7.99998 41.3412 7.3276 42.5 7.49998C44.1502 7.74546 44.3849 10.0821 46 10.5C48.8419 11.2352 51.1506 7.29457 54 8C56.464 8.61002 57.8318 8.17994 60 9.5" stroke="#E71F20"/>
</g>
</g>
<defs>
<filter id="filter0_d_152_16" x="-2.3999" y="1.5" width="64.6599" height="14.2346" filterUnits="userSpaceOnUse" color-interpolation-filters="sRGB">
<feFlood flood-opacity="0" result="BackgroundImageFix"/>
<feColorMatrix in="SourceAlpha" type="matrix" values="0 0 0 0 0 0 0 0 0 0 0 0 0 0 0 0 0 0 127 0" result="hardAlpha"/>
<feOffset dy="1"/>
<feGaussianBlur stdDeviation="1"/>
<feComposite in2="hardAlpha" operator="out"/>
<feColorMatrix type="matrix" values="0 0 0 0 0.905882 0 0 0 0 0.121569 0 0 0 0 0.12549 0 0 0 1 0"/>
<feBlend mode="normal" in2="BackgroundImageFix" result="effect1_dropShadow_152_16"/>
<feBlend mode="normal" in="SourceGraphic" in2="effect1_dropShadow_152_16" result="shape"/>
</filter>
<clipPath id="clip0_152_16">
<rect width="60" height="16" fill="white"/>
</clipPath>
</defs>
</svg>
