<svg width="60" height="16" viewBox="0 0 60 16" fill="none" xmlns="http://www.w3.org/2000/svg">
<g clip-path="url(#clip0_152_20)">
<g filter="url(#filter0_d_152_20)">
<path d="M0 3.83966C0 3.83966 0.982823 10.0582 3.75 9.87091C5.87746 9.72695 5.36829 5.95371 7.5 5.90216C9.94983 5.84292 8.80017 10.9927 11.25 10.9334C13.3817 10.8819 12.8678 6.98508 15 6.96466C16.883 6.94664 16.8698 9.89122 18.75 9.99591C20.4015 10.0879 21.2134 9.06664 22.5 8.02716C24.6413 6.29715 23.532 2.495 26.25 2.05841C27.7496 1.81753 28.6718 2.35298 30 3.08966C33.6573 5.1182 29.5814 12.7834 33.75 13.1209C35.2576 13.243 36.1808 12.892 37.5 12.1522C40.4998 10.4698 37.8426 3.7158 41.25 4.18341C43.9978 4.5605 42.2328 10.4019 45 10.2147C47.1275 10.0707 46.6183 6.29746 48.75 6.24591C51.1998 6.18667 50.0519 11.1674 52.5 11.2772C55.25 11.4004 53.5039 5.50024 56.25 5.30841C59.3544 5.09156 60 12.3397 60 12.3397" stroke="#E71F20"/>
</g>
</g>
<defs>
<filter id="filter0_d_152_20" x="-2.4939" y="0.500244" width="64.9919" height="16.1443" filterUnits="userSpaceOnUse" color-interpolation-filters="sRGB">
<feFlood flood-opacity="0" result="BackgroundImageFix"/>
<feColorMatrix in="SourceAlpha" type="matrix" values="0 0 0 0 0 0 0 0 0 0 0 0 0 0 0 0 0 0 127 0" result="hardAlpha"/>
<feOffset dy="1"/>
<feGaussianBlur stdDeviation="1"/>
<feComposite in2="hardAlpha" operator="out"/>
<feColorMatrix type="matrix" values="0 0 0 0 0.905882 0 0 0 0 0.121569 0 0 0 0 0.12549 0 0 0 1 0"/>
<feBlend mode="normal" in2="BackgroundImageFix" result="effect1_dropShadow_152_20"/>
<feBlend mode="normal" in="SourceGraphic" in2="effect1_dropShadow_152_20" result="shape"/>
</filter>
<clipPath id="clip0_152_20">
<rect width="60" height="16" fill="white"/>
</clipPath>
</defs>
</svg>
