<svg width="60" height="16" viewBox="0 0 60 16" fill="none" xmlns="http://www.w3.org/2000/svg">
<g clip-path="url(#clip0_152_30)">
<path d="M0 4.00601C1.46447 5.95863 1.31316 8.86737 3.75 9.00601C5.40705 9.10028 5.844 6.89475 7.5 7.00601C9.6364 7.14954 9.16499 10.5186 11.25 11.006C14.9577 11.8727 13 2.00601 15 2.00601C17 2.00601 14.7535 13.1992 18.75 12.006C21.3977 11.2155 19.8927 6.92085 22.5 6.00601C23.8819 5.52114 24.8635 5.53466 26.25 6.00601C28.2773 6.69517 28.111 8.99783 30 10.006C31.3371 10.7196 32.2579 11.2722 33.75 11.006C35.8579 10.63 37.5 7.00601 37.5 7.00601C37.5 7.00601 38.8132 2.14464 41.25 2.00601C42.907 1.91173 43.7254 2.94298 45 4.00601C47.6498 6.21591 45.3104 12.2786 48.75 12.006C51.8415 11.761 49.3988 5.00919 52.5 5.00601C54.1597 5.0043 54.5903 7.00601 56.25 7.00601C57.9097 7.00601 59.0754 6.38433 60 5.00601" stroke="#39E75F" stroke-width="0.5"/>
</g>
<defs>
<clipPath id="clip0_152_30">
<rect width="60" height="16" fill="white"/>
</clipPath>
</defs>
</svg>
