<svg width="60" height="16" viewBox="0 0 60 16" fill="none" xmlns="http://www.w3.org/2000/svg">
<g clip-path="url(#clip0_152_14)">
<path d="M0 13.0146C1.17157 11.2573 0.930492 8.09269 3 8.51463C3.95663 8.70967 4.04337 9.81959 5 10.0146C7.06951 10.4366 5.90275 5.26477 8 5.51463C9.24151 5.66253 9.24987 7.49506 10.5 7.51463C12.1795 7.54091 11.5255 4.81915 13 4.01463C16.3807 2.17004 14.1618 12.8299 18 12.5146C21.0399 12.2649 20.0827 5.6243 23 6.51463C24.8676 7.0846 24.1324 9.94465 26 10.5146C28.9173 11.405 27.9968 3.9818 31 4.51463C32.3864 4.7606 32.6105 6.28665 34 6.51463C36.352 6.90053 36.6345 2.72274 39 3.01463C41.3336 3.30257 41.4452 5.7508 43 7.51463C44.3725 9.07171 44.5221 10.8853 46.5 11.5146C49.2473 12.3888 50.1173 7.96951 53 8.01463C56.359 8.0672 58.8609 9.85424 60 13.0146" stroke="#E71F20" stroke-width="0.5"/>
</g>
<defs>
<clipPath id="clip0_152_14">
<rect width="60" height="16" fill="white"/>
</clipPath>
</defs>
</svg>
