<svg width="60" height="16" viewBox="0 0 60 16" fill="none" xmlns="http://www.w3.org/2000/svg">
<g clip-path="url(#clip0_152_30)">
<g filter="url(#filter0_d_152_30)">
<path d="M0 3.9999C1.46447 5.95252 1.31316 8.86126 3.75 8.9999C5.40705 9.09418 5.844 6.88864 7.5 6.9999C9.6364 7.14344 9.16499 10.5125 11.25 10.9999C14.9577 11.8666 13 1.9999 15 1.9999C17 1.9999 14.7535 13.1931 18.75 11.9999C21.3977 11.2094 19.8927 6.91475 22.5 5.9999C23.8819 5.51504 24.8635 5.52856 26.25 5.9999C28.2773 6.68906 28.111 8.99173 30 9.9999C31.3371 10.7135 32.2579 11.2661 33.75 10.9999C35.8579 10.6239 37.5 6.9999 37.5 6.9999C37.5 6.9999 38.8132 2.13854 41.25 1.9999C42.907 1.90563 43.7254 2.93688 45 3.9999C47.6498 6.20981 45.3104 12.2725 48.75 11.9999C51.8415 11.7549 49.3988 5.00309 52.5 4.9999C54.1597 4.9982 54.5903 6.9999 56.25 6.9999C57.9097 6.9999 59.0754 6.37822 60 4.9999" stroke="#39E75F"/>
</g>
</g>
<defs>
<filter id="filter0_d_152_30" x="-2.3999" y="0.493896" width="64.8152" height="15.095" filterUnits="userSpaceOnUse" color-interpolation-filters="sRGB">
<feFlood flood-opacity="0" result="BackgroundImageFix"/>
<feColorMatrix in="SourceAlpha" type="matrix" values="0 0 0 0 0 0 0 0 0 0 0 0 0 0 0 0 0 0 127 0" result="hardAlpha"/>
<feOffset dy="1"/>
<feGaussianBlur stdDeviation="1"/>
<feComposite in2="hardAlpha" operator="out"/>
<feColorMatrix type="matrix" values="0 0 0 0 0.223529 0 0 0 0 0.905882 0 0 0 0 0.372549 0 0 0 1 0"/>
<feBlend mode="normal" in2="BackgroundImageFix" result="effect1_dropShadow_152_30"/>
<feBlend mode="normal" in="SourceGraphic" in2="effect1_dropShadow_152_30" result="shape"/>
</filter>
<clipPath id="clip0_152_30">
<rect width="60" height="16" fill="white"/>
</clipPath>
</defs>
</svg>
