<svg width="60" height="16" viewBox="0 0 60 16" fill="none" xmlns="http://www.w3.org/2000/svg">
<g clip-path="url(#clip0_152_28)">
<path d="M0 4C1.46447 6.34315 0.992876 10.1824 3.75 10C5.88655 9.85867 5.47272 6.68916 7.5 6C8.88654 5.52865 9.84847 5.57529 11.25 6C13.0448 6.54389 13.1466 8.71318 15 9C16.4978 9.23179 17.2579 7.73382 18.75 8C20.8579 8.37604 20.3636 11.8565 22.5 12C24.156 12.1113 24.5903 10 26.25 10C27.9097 10 28.4562 11.3907 30 12C31.3223 12.5219 32.0793 12.9526 33.5 13C35.1093 13.0536 35.9962 12.5757 37.5 12C39.05 11.4066 39.5925 9.91335 41.25 10C43.1229 10.0979 43.1991 12.4765 45 13C49.7146 14.3705 46.5 1 48.75 1C51 1 48.3482 11.398 52.5 11C54.1521 10.8416 54.9642 10.0494 56.25 9C56.25 9 59.3676 5.68981 60 3" stroke="#39E75F" stroke-width="0.5"/>
</g>
<defs>
<clipPath id="clip0_152_28">
<rect width="60" height="16" fill="white"/>
</clipPath>
</defs>
</svg>
