<svg width="60" height="16" viewBox="0 0 60 16" fill="none" xmlns="http://www.w3.org/2000/svg">
<g clip-path="url(#clip0_152_22)">
<path d="M0 3.75302C1.46447 2.98418 2.10296 1.9361 3.75 1.78427C7.91457 1.40037 3.39011 12.59 7.5 11.8155C10.8799 11.1786 7.84258 3.37916 11.25 3.84677C13.9978 4.22385 12.23 10.018 15 9.87802C17.4279 9.75535 16.319 4.91494 18.75 4.90927C21.2005 4.90355 20.0495 9.95944 22.5 9.94052C24.3678 9.9261 26.25 6.97177 26.25 6.97177C26.25 6.97177 28.5 1.25305 30 1.00302C31.5 0.752991 28.8778 16.1091 33.75 14.0343C35.7118 13.1988 37.5 10.0655 37.5 10.0655C37.5 10.0655 39.1177 6.09792 41.25 6.09677C43.4001 6.09562 42.885 9.74086 45 10.128C46.4878 10.4004 47.2375 9.14834 48.75 9.15927C50.2688 9.17025 51.0355 9.78779 52.5 10.1905C53.9645 10.5933 54.8379 10.6625 56.25 11.2218C57.7985 11.8351 58.6404 12.2911 60 13.253" stroke="#E71F20" stroke-width="0.5"/>
</g>
<defs>
<clipPath id="clip0_152_22">
<rect width="60" height="16" fill="white"/>
</clipPath>
</defs>
</svg>
