<svg width="104" height="115" viewBox="0 0 104 115" fill="none" xmlns="http://www.w3.org/2000/svg">
<path d="M84.6253 57.814L78.1916 61.4577C77.525 61.8353 76.6988 61.3537 76.6988 60.5876V27.0375C76.6988 26.6907 76.5191 26.3686 76.224 26.1865L46.2099 7.66441C45.5627 7.26504 45.5805 6.31805 46.2423 5.94328L52.6902 2.29147C53.0076 2.1117 53.3977 2.11904 53.7081 2.31061L84.6577 21.41C84.9528 21.5921 85.1325 21.9142 85.1325 22.261V56.9438C85.1325 57.3041 84.9388 57.6364 84.6253 57.814Z" fill="#0059F7"/>
<path d="M101.637 33.3443L96.4079 29.0255C95.7558 28.4869 94.7711 28.9508 94.7711 29.7966V62.9384C94.7711 63.2857 94.5909 63.6082 94.2951 63.7902L60.3074 84.6987C60.0115 84.8807 59.8313 85.2031 59.8313 85.5504V91.5492C59.8313 92.334 60.694 92.813 61.3601 92.398L101.529 67.3733C101.822 67.1907 102 66.8698 102 66.5245V34.1153C102 33.817 101.867 33.5343 101.637 33.3443Z" fill="#0059F7"/>
<path d="M102 88.0051V82.5489C102 81.7781 101.165 81.2971 100.498 81.6841L60.3293 105.003C60.021 105.181 59.8313 105.511 59.8313 105.867V111.892C59.8313 112.668 60.6759 113.148 61.3425 112.752L101.511 88.8646C101.814 88.6844 102 88.3578 102 88.0051Z" fill="#0059F7"/>
<path d="M67.0602 39.1316V31.8428C67.0602 31.4805 66.8643 31.1465 66.5479 30.9698L34.4246 13.0247C34.1165 12.8526 33.7406 12.8556 33.4353 13.0325L2.49847 30.967C2.18993 31.1459 2 31.4755 2 31.8322V39.1014C2 39.8657 2.82268 40.3475 3.48928 39.9735L33.4474 23.1666C33.7464 22.9989 34.1106 22.996 34.4122 23.1591L65.5847 40.0113C66.251 40.3715 67.0602 39.889 67.0602 39.1316Z" fill="#0059F7"/>
<path d="M39.8009 36.9279L34.4526 33.394C34.1318 33.182 33.7178 33.1728 33.3878 33.3703L2.48651 51.862C2.18473 52.0426 2 52.3684 2 52.7201V88.001C2 88.3559 2.18808 88.6842 2.49422 88.8637L43.2653 112.768C43.932 113.159 44.7711 112.678 44.7711 111.905V105.859C44.7711 105.507 44.5863 105.181 44.2844 105.001L10.318 84.6856C10.0161 84.505 9.83133 84.1791 9.83133 83.8274V56.3157C9.83133 55.9569 10.0235 55.6256 10.3349 55.4476L39.746 38.6303C40.3928 38.2605 40.4225 37.3386 39.8009 36.9279Z" fill="#0059F7"/>
<path d="M44.7711 84.997V91.0377C44.7711 91.8039 43.9449 92.2854 43.2783 91.9079L19.9771 78.7111C19.6636 78.5336 19.4699 78.2012 19.4699 77.841V62.244C19.4699 61.9082 19.6384 61.5948 19.9186 61.4096L25.1475 57.9547C25.8123 57.5154 26.6988 57.9921 26.6988 58.789V74.239C26.6988 74.6096 26.9038 74.9499 27.2315 75.1231L44.2384 84.1129C44.5661 84.2861 44.7711 84.6264 44.7711 84.997Z" fill="#0059F7"/>
<path d="M84.6253 57.814L78.1916 61.4577C77.525 61.8353 76.6988 61.3537 76.6988 60.5876V27.0375C76.6988 26.6907 76.5191 26.3686 76.224 26.1865L46.2099 7.66441C45.5627 7.26504 45.5805 6.31805 46.2423 5.94328L52.6902 2.29147C53.0076 2.1117 53.3977 2.11904 53.7081 2.31061L84.6577 21.41C84.9528 21.5921 85.1325 21.9142 85.1325 22.261V56.9438C85.1325 57.3041 84.9388 57.6364 84.6253 57.814Z" stroke="#0059F7" stroke-width="3" stroke-linecap="round" stroke-linejoin="round"/>
<path d="M101.637 33.3443L96.4079 29.0255C95.7558 28.4869 94.7711 28.9508 94.7711 29.7966V62.9384C94.7711 63.2857 94.5909 63.6082 94.2951 63.7902L60.3074 84.6987C60.0115 84.8807 59.8313 85.2031 59.8313 85.5504V91.5492C59.8313 92.334 60.694 92.813 61.3601 92.398L101.529 67.3733C101.822 67.1907 102 66.8698 102 66.5245V34.1153C102 33.817 101.867 33.5343 101.637 33.3443Z" stroke="#0059F7" stroke-width="3" stroke-linecap="round" stroke-linejoin="round"/>
<path d="M102 88.0051V82.5489C102 81.7781 101.165 81.2971 100.498 81.6841L60.3293 105.003C60.021 105.181 59.8313 105.511 59.8313 105.867V111.892C59.8313 112.668 60.6759 113.148 61.3425 112.752L101.511 88.8646C101.814 88.6844 102 88.3578 102 88.0051Z" stroke="#0059F7" stroke-width="3" stroke-linecap="round" stroke-linejoin="round"/>
<path d="M67.0602 39.1316V31.8428C67.0602 31.4805 66.8643 31.1465 66.5479 30.9698L34.4246 13.0247C34.1165 12.8526 33.7406 12.8556 33.4353 13.0325L2.49847 30.967C2.18993 31.1459 2 31.4755 2 31.8322V39.1014C2 39.8657 2.82268 40.3475 3.48928 39.9735L33.4474 23.1666C33.7464 22.9989 34.1106 22.996 34.4122 23.1591L65.5847 40.0113C66.251 40.3715 67.0602 39.889 67.0602 39.1316Z" stroke="#0059F7" stroke-width="3" stroke-linecap="round" stroke-linejoin="round"/>
<path d="M39.8009 36.9279L34.4526 33.394C34.1318 33.182 33.7178 33.1728 33.3878 33.3703L2.48651 51.862C2.18473 52.0426 2 52.3684 2 52.7201V88.001C2 88.3559 2.18808 88.6842 2.49422 88.8637L43.2653 112.768C43.932 113.159 44.7711 112.678 44.7711 111.905V105.859C44.7711 105.507 44.5863 105.181 44.2844 105.001L10.318 84.6856C10.0161 84.505 9.83133 84.1791 9.83133 83.8274V56.3157C9.83133 55.9569 10.0235 55.6256 10.3349 55.4476L39.746 38.6303C40.3928 38.2605 40.4225 37.3386 39.8009 36.9279Z" stroke="#0059F7" stroke-width="3" stroke-linecap="round" stroke-linejoin="round"/>
<path d="M44.7711 84.997V91.0377C44.7711 91.8039 43.9449 92.2854 43.2783 91.9079L19.9771 78.7111C19.6636 78.5336 19.4699 78.2012 19.4699 77.841V62.244C19.4699 61.9082 19.6384 61.5948 19.9186 61.4096L25.1475 57.9547C25.8123 57.5154 26.6988 57.9921 26.6988 58.789V74.239C26.6988 74.6096 26.9038 74.9499 27.2315 75.1231L44.2384 84.1129C44.5661 84.2861 44.7711 84.6264 44.7711 84.997Z" stroke="#0059F7" stroke-width="3" stroke-linecap="round" stroke-linejoin="round"/>
</svg>
